<?xml version="1.0" standalone="no"?><!DOCTYPE svg PUBLIC "-//W3C//DTD SVG 1.1//EN" "http://www.w3.org/Graphics/SVG/1.1/DTD/svg11.dtd"><svg t="1688113394119" class="icon" viewBox="0 0 1024 1024" version="1.1" xmlns="http://www.w3.org/2000/svg" p-id="3111" xmlns:xlink="http://www.w3.org/1999/xlink" width="200" height="200"><path d="M1023.376 546.28c-49.384-241.672-264.544-417.072-511.6-417.072-245.984 0-460.936 174.504-511.128 414.96a30.416 30.416 0 0 0 19.904 34.992 459213.6 459213.6 0 0 0 396.256 135.536c-21.024 7.08-39.368 13.376-45.832 15.912a30.432 30.432 0 0 0-18.68 34.456c15.432 75.168 82.336 129.72 159.088 129.72 76.512 0 143.344-54.288 158.936-129.096a30.504 30.504 0 0 0-19.952-35.024l-43.728-14.936c126.328-41.792 352.256-116.944 398.096-135.024a30.448 30.448 0 0 0 18.64-34.424z m-511.992 287.616c-39 0-73.944-22.528-90.832-56.184 25-8.504 61.544-20.632 90.656-30.24l90.6 30.984c-16.976 33.24-51.688 55.44-90.424 55.44z m0.568-151.032A735256.776 735256.776 0 0 1 66.504 530.552c53.84-198.8 236.96-340.456 445.272-340.456 209.504 0 393.064 142.784 446.016 343.04-97.848 34.936-388.888 130.976-445.84 149.728z" fill="#2c2c2c" p-id="3112"></path></svg>